<?xml version="1.0" encoding="utf-8"?>
<!-- Generator: Adobe Illustrator 22.0.0, SVG Export Plug-In . SVG Version: 6.00 Build 0)  -->
<svg version="1.1" id="Layer_1" xmlns="http://www.w3.org/2000/svg" xmlns:xlink="http://www.w3.org/1999/xlink" x="0px" y="0px"
	 viewBox="0 0 1920 1080" style="enable-background:new 0 0 1920 1080;" xml:space="preserve">
<style type="text/css">
	.st0{opacity:0.1;fill:url(#SVGID_1_);}
	.st1{opacity:0.1;fill:url(#SVGID_2_);}
	.st2{opacity:0.1;fill:url(#SVGID_3_);}
	.st3{opacity:0.1;fill:url(#SVGID_4_);}
</style>
<g>
	<linearGradient id="SVGID_1_" gradientUnits="userSpaceOnUse" x1="442.1077" y1="737.0837" x2="1919" y2="737.0837">
		<stop  offset="0" style="stop-color:#3BAAC6"/>
		<stop  offset="1" style="stop-color:#21C5AD"/>
	</linearGradient>
	<path class="st0" d="M1919,396.2v681.3c0,0.3-0.2,0.5-0.5,0.5H442.1c62.8-74.4,150.7-126.3,243.6-156.9c42-13.8,85.8-23.7,130-23.6
		c56,0.2,110.5,16.2,164.9,29.4c53,12.8,106.7,23.1,160.7,30.8c68.8,9.7,142.5,14.3,204-17.9c26.2-13.8,48.8-33.6,68.8-55.5
		c65.7-71.9,103.6-164.1,151.4-248.9c47.9-84.8,112.5-168,205-198.6C1819.1,420.8,1875.2,418.8,1919,396.2z"/>
	<linearGradient id="SVGID_2_" gradientUnits="userSpaceOnUse" x1="489.3525" y1="619.9594" x2="1919.0304" y2="619.9594">
		<stop  offset="0" style="stop-color:#3BAAC6"/>
		<stop  offset="1" style="stop-color:#21C5AD"/>
	</linearGradient>
	<path class="st1" d="M1919,160.2v918.9c0,0.3-0.2,0.5-0.5,0.5H489.4c30-40.6,69.2-74.4,114.1-97.5c80.2-41.2,177.6-47.4,262.3-16.6
		c48.6,17.6,92.4,46.5,140.3,66.1c82.1,33.7,175.6,38.8,260.9,14.3c36.7-10.5,72.8-27,99.5-54.5c53.2-54.8,58.4-140.4,99.8-204.6
		c26.6-41.3,68.4-72.6,115.5-86.6c69.8-20.6,153.4-6.1,208.9-53.3c42.3-35.9,53.4-96.9,50.8-152.3c-2.5-55.4-15.8-110.5-10.7-165.7
		C1836.6,264.2,1869.8,202.8,1919,160.2z"/>
</g>
<g>
	<linearGradient id="SVGID_3_" gradientUnits="userSpaceOnUse" x1="1" y1="431.6047" x2="1703.0868" y2="431.6047">
		<stop  offset="0" style="stop-color:#3BAAC6"/>
		<stop  offset="1" style="stop-color:#21C5AD"/>
	</linearGradient>
	<path class="st2" d="M1703.1,4c-37.3,46.7-101.1,71.3-161.7,82.5c-73.2,13.6-150.4,14.7-217.4,47c-57.7,27.8-102.5,76.1-145,124.1
		c-33.6,37.9-67.1,76.7-108.6,105.7c-48.5,33.9-173.2,86.6-242.5,89.3c-177.9,6.8-309.7-74.6-422.5-47.8
		c-118.1,28.1-217.5,114.3-277.1,220C98.3,678,77.5,736,47.6,789.3C33.9,813.7,18.3,837.1,1,859.2V4H1703.1z"/>
	<linearGradient id="SVGID_4_" gradientUnits="userSpaceOnUse" x1="1" y1="351.5252" x2="1349.2649" y2="351.5252">
		<stop  offset="0" style="stop-color:#3BAAC6"/>
		<stop  offset="1" style="stop-color:#21C5AD"/>
	</linearGradient>
	<path class="st3" d="M1326.2,148c-25.2,28.2-63,41.5-99.9,50c-61.3,14.1-124.3,18-187.1,21.9c-87.2,5.4-174.4,10.8-261.6,16.2
		c-57.1,3.5-114.3,7.1-170.3,18.6C489.9,278.8,377.1,341,309.5,439.8c-22.5,32.8-39.7,69.1-62.4,101.7
		C189.8,623.9,99.4,677.1,1,699.1V4h1226.3c15.5,3.3,30.9,6.9,46.3,10.9c22,5.7,45,12.7,60.1,29.7
		C1358.9,72.8,1351.4,119.8,1326.2,148z"/>
</g>
</svg>
