<?xml version="1.0" encoding="utf-8"?>
<!-- Generator: Adobe Illustrator 22.0.0, SVG Export Plug-In . SVG Version: 6.00 Build 0)  -->
<svg version="1.1" id="Layer_1" xmlns="http://www.w3.org/2000/svg" xmlns:xlink="http://www.w3.org/1999/xlink" x="0px" y="0px"
	 viewBox="0 0 1920 100" style="enable-background:new 0 0 1920 100;" xml:space="preserve">
<style type="text/css">
	.st0{opacity:0.1;fill:#3BAAC6;}
	.st1{clip-path:url(#SVGID_2_);fill:url(#SVGID_3_);}
	.st2{clip-path:url(#SVGID_2_);fill:url(#SVGID_4_);}
	.st3{clip-path:url(#SVGID_2_);fill:#D5F3F0;}
</style>
<g>
	<path class="st0" d="M1888.2,6.3H31.5c-17,0-30.9,13.9-30.9,30.9v60.7H1919V37.1C1919,20.2,1905.1,6.3,1888.2,6.3z"/>
	<g>
		<defs>
			<path id="SVGID_1_" d="M1888.2,6.3H31.5c-17,0-30.9,13.9-30.9,30.9v60.7H1919V37.1C1919,20.2,1905.1,6.3,1888.2,6.3z"/>
		</defs>
		<clipPath id="SVGID_2_">
			<use xlink:href="#SVGID_1_"  style="overflow:visible;"/>
		</clipPath>
		<linearGradient id="SVGID_3_" gradientUnits="userSpaceOnUse" x1="1" y1="433.605" x2="1703.0901" y2="433.605">
			<stop  offset="0" style="stop-color:#EBF6F9"/>
			<stop  offset="1" style="stop-color:#E8F9F7"/>
		</linearGradient>
		<path class="st1" d="M1703.1,6c-37.3,46.7-101.1,71.3-161.7,82.5c-67.3,12.5-137.9,14.5-201,39.8c-5.5,2.2-11,4.6-16.4,7.2
			c-32,15.4-60.1,37.1-85.9,61.6c-20.8,19.6-40.1,41.1-59.1,62.4c-33.6,37.9-67.1,76.7-108.6,105.7
			c-48.5,33.9-173.2,86.6-242.5,89.3c-177.9,6.8-309.7-74.6-422.5-47.8c-34.5,8.2-67.5,21.4-98.3,38.6
			c-74.6,41.6-136.7,106.6-178.8,181.4c-6.5,11.5-12.5,23.2-18.3,35c-21.1,43-38.9,87.7-62.3,129.5C33.9,815.7,18.3,839.1,1,861.2
			V36.9C1,19.9,14.9,6,31.9,6H1703.1z"/>
		<path class="st3" d="M1340.5,128.3c-5.5,2.2-11,4.6-16.4,7.2c-32,15.4-60.1,37.1-85.9,61.6c-3.9,1-7.9,2-11.8,2.9
			c-61.3,14.1-124.3,18-187.1,21.9c-87.2,5.4-174.4,10.8-261.6,16.2c-57.1,3.6-114.3,7.1-170.4,18.6
			C489.9,280.8,377.1,343,309.5,441.8c-0.8,1.2-1.6,2.3-2.4,3.5c-74.6,41.6-136.7,106.6-178.8,181.4c-6.5,11.5-12.5,23.2-18.3,35
			C75.8,679.4,39,692.6,1,701V36.9C1,19.9,14.9,6,31.9,6h1195.4c15.5,3.3,30.9,6.9,46.3,10.9c22,5.7,45,12.7,60.1,29.7
			C1353.2,68.4,1353.1,101.4,1340.5,128.3z"/>
	</g>
</g>
</svg>
