<svg id="Component_16_1" data-name="Component 16 – 1" xmlns="http://www.w3.org/2000/svg" width="22.317" height="48.629" viewBox="0 0 22.317 48.629">
    <path id="Path_85" data-name="Path 85" d="M63.045,310.229v6.56H46v-6.56a3.162,3.162,0,0,0-2.636,3.116v28.182a3.163,3.163,0,0,0,3.163,3.163H62.518a3.163,3.163,0,0,0,3.163-3.163V313.345A3.162,3.162,0,0,0,63.045,310.229ZM50.971,341.59H47.962v-3.009h3.009Zm0-5.448H47.962v-3.008h3.009Zm0-5.208H47.962v-3.008h3.009Zm5.014,10.656H52.976v-3.009h3.009Zm0-5.448H52.976v-3.008h3.009Zm0-5.208H52.976v-3.008h3.009Zm5.1,10.656H58.074v-3.009h3.009Zm0-5.448H58.074v-3.008h3.009Zm0-5.208H58.074v-3.008h3.009Zm1.757-4.9H45.854v-6.794H62.84Z" transform="translate(-43.364 -296.061)" fill="#fff"/>
    <path id="Path_86" data-name="Path 86" d="M55.578,296.374a1.613,1.613,0,0,1,.031-.313h-6.6a1.563,1.563,0,0,0-1.563,1.564v18.038h8.13Z" transform="translate(-43.364 -296.061)" fill="#fff"/>
    <path id="Path_87" data-name="Path 87" d="M58.861,315.663H61.6V297.625a1.563,1.563,0,0,0-1.563-1.564h-1.2a1.613,1.613,0,0,1,.031.313Z" transform="translate(-43.364 -296.061)" fill="#fff"/>
</svg>