<svg id="Group_1166" data-name="Group 1166" xmlns="http://www.w3.org/2000/svg" width="70.673" height="73.943" viewBox="0 0 70.673 73.943">
  <path id="Path_743" data-name="Path 743" d="M523.794,269.642v.014a3.094,3.094,0,0,1-3.08,3.109l-.434,0a3.1,3.1,0,0,0,3.514-3.125m-34.982-28.848a35.69,35.69,0,0,0-35.69,35.69,3.095,3.095,0,0,0,6.189,0,29.505,29.505,0,0,1,57.3-9.889l4.073-.019h.014a3.1,3.1,0,0,1,2.974,2.235,35.7,35.7,0,0,0-34.862-28.018" transform="translate(-453.122 -240.794)" fill="#3886f7" style="mix-blend-mode: multiply;isolation: isolate"/>
  <path id="Path_744" data-name="Path 744" d="M520.728,286.126a3.094,3.094,0,0,0-3.094,3.095,29.5,29.5,0,0,1-57.27,9.977l-4.091.019h-.015a3.1,3.1,0,0,1-2.95-2.155,35.7,35.7,0,0,0,34.824,27.847,35.688,35.688,0,0,0,35.69-35.689,3.094,3.094,0,0,0-3.095-3.095" transform="translate(-453.164 -250.967)" fill="#3886f7" style="mix-blend-mode: multiply;isolation: isolate"/>
  <path id="Path_745" data-name="Path 745" d="M482.4,277.151h0m-.019,0h0m-.019,0h0m11.973-17.741a3.085,3.085,0,0,0-2.154.873l-11.916,11.553a3.1,3.1,0,0,0,1.233,5.176,3.1,3.1,0,0,1,.907-6.05l7.688-.036,6.395-6.2a3.1,3.1,0,0,0-2.154-5.317" transform="translate(-459.003 -244.971)" fill="#3886f7"/>
  <path id="Path_746" data-name="Path 746" d="M530.45,276.277l.054.247a3.147,3.147,0,0,1,.067.583,3.089,3.089,0,0,0-.12-.831m-7.06-2.217-32.4.153-5.521,5.352a3.083,3.083,0,0,1-2.154.873h.015l43.723-.206a3.1,3.1,0,0,1-2.608-2.426,29.061,29.061,0,0,0-1.059-3.746" transform="translate(-459.898 -248.259)" fill="#ea1f38"/>
  <path id="Path_747" data-name="Path 747" d="M539.071,274.036h-.014l-4.073.019a29.071,29.071,0,0,1,1.059,3.746,3.1,3.1,0,0,0,2.608,2.426l.434,0a3.094,3.094,0,0,0,3.08-3.109V277.1a3.137,3.137,0,0,0-.067-.583l-.054-.247a3.1,3.1,0,0,0-2.974-2.235" transform="translate(-471.492 -248.254)" fill="#331036"/>
  <path id="Path_748" data-name="Path 748" d="M483.022,282.244h0m-.024,0h0m-.867-.139a3.089,3.089,0,0,0,.864.139,3.1,3.1,0,0,1-.864-.139" transform="translate(-459.632 -250.064)" fill="#ea1f38"/>
  <path id="Path_749" data-name="Path 749" d="M490.1,274.257l-7.688.036a3.094,3.094,0,0,0-.043,6.188h.057a3.083,3.083,0,0,0,2.154-.873l5.521-5.352" transform="translate(-459.003 -248.303)" fill="#331036"/>
  <path id="Path_750" data-name="Path 750" d="M500.374,294.757h-.015l-44.158.208A3.1,3.1,0,0,0,453.267,299c-.021-.095-.042-.189-.062-.285a3.094,3.094,0,0,1,2.372-3.678,3.158,3.158,0,0,1,.655-.07,3.1,3.1,0,0,1,3.023,2.442,29.015,29.015,0,0,0,1.068,3.725l32.412-.153,5.505-5.337a3.1,3.1,0,0,1,4.077-.2,3.084,3.084,0,0,0-1.943-.686" transform="translate(-453.122 -252.904)" fill="#ea1f38"/>
  <path id="Path_751" data-name="Path 751" d="M456.235,295.028a3.158,3.158,0,0,0-.655.07,3.094,3.094,0,0,0-2.372,3.678c.02.1.041.19.062.285a3.1,3.1,0,0,0,2.95,2.155h.015l4.091-.019a29.015,29.015,0,0,1-1.068-3.725,3.1,3.1,0,0,0-3.023-2.442" transform="translate(-453.126 -252.964)" fill="#331036"/>
  <path id="Path_752" data-name="Path 752" d="M511.651,295.641a3.094,3.094,0,0,1-1.928,5.5l-7.654.036-6.412,6.216a3.095,3.095,0,0,0,4.308,4.443l11.916-11.552a3.1,3.1,0,0,0-.23-4.646" transform="translate(-462.456 -253.102)" fill="#3886f7"/>
  <path id="Path_753" data-name="Path 753" d="M511.854,294.777a3.083,3.083,0,0,0-2.153.873l-5.505,5.337,7.654-.036a3.086,3.086,0,1,0,0-6.173" transform="translate(-464.583 -252.908)" fill="#331036"/>
</svg>
